#!OML:ASF H:\ManfredETheater\Project 1\Capture day 1\Session 1\subject.ASF
:FULLY-SPECIFIED
:DEGREES
279
root -1.67358 17.0774 44.8597 3.32694 -3.69235 -1.22508
lowerback 6.42856 -0.138978 -0.2731
upperback -2.54562 -0.105917 1.77114
thorax -6.2617 -0.00246262 2.01505
lowerneck -20.7727 -4.44321 -4.95349
upperneck 10.9306 -5.34117 4.6797
head 6.97219 -2.34924 1.68941
rclavicle 2.17421e-015 -2.42517e-014
rhumerus -40.6519 -16.3624 -72.6689
rradius 33.3956
rwrist -0.807801
rhand -21.3665 -13.2548
rfingers 7.12502
rthumb 5.02044 -43.1753
lclavicle 2.17421e-015 -2.42517e-014
lhumerus -42.689 14.9008 72.6721
lradius 39.0891
lwrist -12.2124
lhand -9.56823 7.68516
lfingers 7.12502
lthumb 16.3994 37.0119
rfemur 1.42237 2.56504 21.6034
rtibia 26.9759
rfoot -11.0104 23.1304
rtoes 23.1852
lfemur -27.4929 -2.02386 -19.2399
ltibia 34.7767
lfoot -7.49779 -0.0277892
ltoes 0.634958
280
root -1.66015 17.0835 44.9521 3.1899 -4.0084 -1.16528
lowerback 6.41039 -0.132341 -0.367309
upperback -2.5529 -0.109254 1.70831
thorax -6.25869 -0.00168686 2.00268
lowerneck -20.7997 -4.37702 -4.88466
upperneck 11.0827 -5.26492 4.61223
head 7.01886 -2.31472 1.66484
rclavicle 1.1163e-014 -5.96354e-015
rhumerus -41.0102 -16.6548 -72.3316
rradius 33.215
rwrist -0.634567
rhand -21.3128 -13.0693
rfingers 7.12502
rthumb 5.07235 -42.9886
lclavicle 1.1163e-014 -5.96354e-015
lhumerus -42.8031 15.2436 72.3471
lradius 38.656
lwrist -12.2619
lhand -9.60652 7.8297
lfingers 7.12502
lthumb 16.3625 37.1595
rfemur 1.16935 2.22522 21.3434
rtibia 28.1692
rfoot -10.1202 23.5383
rtoes 23.5514
lfemur -27.0235 -2.07366 -19.3636
ltibia 34.895
lfoot -7.65294 0.120256
ltoes 1.13394
281
root -1.64562 17.0902 45.0435 3.05652 -4.33078 -1.1706
lowerback 6.39578 -0.122329 -0.386712
upperback -2.55298 -0.100166 1.66665
thorax -6.25068 0.00258729 1.96882
lowerneck -20.8337 -4.31345 -4.81767
upperneck 11.2205 -5.18922 4.53613
head 7.0619 -2.28136 1.63764
rclavicle 6.34558e-015 -1.47101e-014
rhumerus -41.3629 -16.9093 -72.0043
rradius 33.0878
rwrist -0.517894
rhand -21.2273 -13.023
rfingers 7.12502
rthumb 5.15489 -42.9403
lclavicle 6.34558e-015 -1.47101e-014
lhumerus -42.9036 15.5699 72.0537
lradius 38.2363
lwrist -12.2677
lhand -9.62701 8.01989
lfingers 7.12502
lthumb 16.3428 37.3513
rfemur 0.840277 1.85407 21.1306
rtibia 29.4645
rfoot -9.06275 23.9609
rtoes 24.2734
lfemur -26.5515 -2.08704 -19.4251
ltibia 35.004
lfoot -7.86681 0.284652
ltoes 1.40311
282
root -1.63 17.0975 45.1342 2.9229 -4.66479 -1.21976
lowerback 6.3858 -0.11033 -0.356119
upperback -2.54554 -0.0829951 1.64223
thorax -6.23771 0.00913898 1.92389
lowerneck -20.8724 -4.24857 -4.75135
upperneck 11.3442 -5.10928 4.45175
head 7.10077 -2.24683 1.60837
rclavicle 8.6316e-015 -2.0276e-014
rhumerus -41.7058 -17.128 -71.6788
rradius 32.9856
rwrist -0.436971
rhand -21.1029 -12.9979
rfingers 7.12502
rthumb 5.27499 -42.9122
lclavicle 8.6316e-015 -2.0276e-014
lhumerus -42.9929 15.8726 71.7972
lradius 37.8333
lwrist -12.2122
lhand -9.64031 8.2457
lfingers 7.12502
lthumb 16.33 37.5782
rfemur 0.436073 1.45609 20.9386
rtibia 30.8639
rfoot -7.82257 24.3966
rtoes 24.7789
lfemur -26.068 -2.03246 -19.4523
ltibia 35.0941
lfoot -8.11963 0.439188
ltoes 1.50903
283
root -1.61367 17.1049 45.2235 2.79576 -5.01473 -1.27338
lowerback 6.38597 -0.0922677 -0.321237
upperback -2.53959 -0.0568275 1.62519
thorax -6.23245 0.0201838 1.88331
lowerneck -20.9008 -4.18365 -4.69223
upperneck 11.4467 -5.02668 4.36659
head 7.13121 -2.21175 1.58055
rclavicle -2.43822e-016 6.36111e-015
rhumerus -42.0406 -17.3108 -71.3524
rradius 32.9028
rwrist -0.390432
rhand -20.9425 -12.9807
rfingers 7.12502
rthumb 5.42986 -42.8911
lclavicle -2.43822e-016 6.36111e-015
lhumerus -43.0794 16.1342 71.5839
lradius 37.4585
lwrist -12.1119
lhand -9.63928 8.51135
lfingers 7.12502
lthumb 16.331 37.8437
rfemur -0.0640092 1.04809 20.7255
rtibia 32.3772
rfoot -6.38413 24.835
rtoes 24.7296
lfemur -25.5822 -1.89685 -19.4873
ltibia 35.1539
lfoot -8.37803 0.570615
ltoes 1.52977
284
root -1.59673 17.112 45.3126 2.66456 -5.37818 -1.30641
lowerback 6.38144 -0.065112 -0.301579
upperback -2.54037 -0.0198786 1.60684
thorax -6.23192 0.0371952 1.84873
lowerneck -20.8671 -4.12261 -4.65074
upperneck 11.5151 -4.94657 4.28595
head 7.14115 -2.17935 1.55763
rclavicle -1.6767e-014 -1.07344e-014
rhumerus -42.3933 -17.459 -71.0133
rradius 32.8399
rwrist -0.371736
rhand -20.7527 -12.9817
rfingers 7.12502
rthumb 5.61312 -42.8874
lclavicle -1.6767e-014 -1.07344e-014
lhumerus -43.1793 16.323 71.4203
lradius 37.1115
lwrist -11.9628
lhand -9.63231 8.79209
lfingers 7.12502
lthumb 16.3377 38.1239
rfemur -0.645033 0.623497 20.4589
rtibia 34.0041
rfoot -4.73556 25.2716
rtoes 24.3407
lfemur -25.0749 -1.67675 -19.559
ltibia 35.1771
lfoot -8.63567 0.658041
ltoes 1.54962
285
root -1.57912 17.1186 45.4005 2.53543 -5.73617 -1.25035
lowerback 6.37763 -0.0416919 -0.369009
upperback -2.5379 0.00310931 1.56847
thorax -6.22789 0.0503505 1.84384
lowerneck -20.8432 -4.05728 -4.60588
upperneck 11.5674 -4.86039 4.20483
head 7.14713 -2.14388 1.5347
rclavicle -4.46596e-015 -3.97569e-016
rhumerus -42.7082 -17.5701 -70.6924
rradius 32.7866
rwrist -0.370126
rhand -20.549 -13.0116
rfingers 7.12502
rthumb 5.80979 -42.912
lclavicle -4.46596e-015 -3.97569e-016
lhumerus -43.2617 16.4643 71.3007
lradius 36.7993
lwrist -11.7902
lhand -9.60343 9.09541
lfingers 7.12502
lthumb 16.3655 38.425
rfemur -1.32374 0.166854 20.0601
rtibia 35.7464
rfoot -2.87673 25.7051
rtoes 23.596
lfemur -24.5608 -1.39003 -19.7428
ltibia 35.156
lfoot -8.88586 0.695807
ltoes 1.5844
286
root -1.56171 17.1242 45.4875 2.39881 -6.09267 -1.12677
lowerback 6.38335 -0.0187203 -0.509142
upperback -2.53999 0.0183016 1.51623
thorax -6.23398 0.0623755 1.8664
lowerneck -20.7919 -3.98741 -4.56237
upperneck 11.598 -4.76871 4.12714
head 7.14149 -2.106 1.51418
rclavicle -9.11071e-015 1.09332e-014
rhumerus -43.0077 -17.6411 -70.3841
rradius 32.7416
rwrist -0.378348
rhand -20.3418 -13.0549
rfingers 7.12502
rthumb 6.00983 -42.9497
lclavicle -9.11071e-015 1.09332e-014
lhumerus -43.3472 16.5409 71.2216
lradius 36.5238
lwrist -11.6151
lhand -9.54633 9.39504
lfingers 7.12502
lthumb 16.4205 38.72
rfemur -2.08018 -0.291577 19.5628
rtibia 37.5889
rfoot -0.822212 26.0953
rtoes 22.5615
lfemur -24.029 -1.04025 -20.0075
ltibia 35.09
lfoot -9.13638 0.693866
ltoes 1.60222
287
root -1.54514 17.1286 45.5729 2.25212 -6.44148 -0.92238
lowerback 6.4002 0.00192856 -0.741524
upperback -2.53793 0.0210356 1.44591
thorax -6.2418 0.0715776 1.92349
lowerneck -20.7429 -3.91374 -4.51166
upperneck 11.6154 -4.67333 4.04961
head 7.13166 -2.06601 1.49302
rclavicle -6.43954e-015 1.98785e-016
rhumerus -43.2687 -17.6831 -70.1004
rradius 32.705
rwrist -0.38451
rhand -20.1395 -13.1278
rfingers 7.12502
rthumb 6.20514 -43.0169
lclavicle -6.43954e-015 1.98785e-016
lhumerus -43.4167 16.5597 71.1827
lradius 36.2876
lwrist -11.4552
lhand -9.44794 9.65301
lfingers 7.12502
lthumb 16.5152 38.9702
rfemur -2.90916 -0.745988 18.9609
rtibia 39.5186
rfoot 1.37012 26.416
rtoes 21.2471
lfemur -23.484 -0.635215 -20.3626
ltibia 34.9784
lfoot -9.3824 0.658705
ltoes 1.57384
288
root -1.52897 17.1315 45.6573 2.08855 -6.75127 -0.618423
lowerback 6.42391 0.010237 -1.07158
upperback -2.53067 -0.00317137 1.34947
thorax -6.24715 0.0708166 2.01145
lowerneck -20.7037 -3.83721 -4.45072
upperneck 11.6297 -4.57577 3.96848
head 7.12213 -2.02469 1.46915
rclavicle 2.77988e-016 -7.35503e-015
rhumerus -43.4917 -17.7022 -69.8419
rradius 32.6747
rwrist -0.38827
rhand -19.9535 -13.2105
rfingers 7.12502
rthumb 6.38468 -43.0943
lclavicle 2.77988e-016 -7.35503e-015
lhumerus -43.4707 16.5226 71.1779
lradius 36.0896
lwrist -11.3368
lhand -9.29381 9.85928
lfingers 7.12502
lthumb 16.6636 39.164
rfemur -3.78166 -1.2389 18.2273
rtibia 41.5109
rfoot 3.72676 26.6796
rtoes 20.1285
lfemur -22.9216 -0.19983 -20.8311
ltibia 34.8256
lfoot -9.62042 0.578565
ltoes 1.55007
289
root -1.5147 17.1337 45.7388 1.91363 -7.0316 -0.273557
lowerback 6.47928 0.0171852 -1.45642
upperback -2.53225 -0.035094 1.24442
thorax -6.2797 0.0686452 2.12245
lowerneck -20.6332 -3.76454 -4.39332
upperneck 11.6318 -4.48415 3.89189
head 7.10408 -1.98638 1.44697
rclavicle 2.47083e-015 -6.16232e-015
rhumerus -43.7108 -17.7134 -69.592
rradius 32.6622
rwrist -0.388245
rhand -19.7875 -13.3134
rfingers 7.12502
rthumb 6.54497 -43.1923
lclavicle 2.47083e-015 -6.16232e-015
lhumerus -43.5205 16.4077 71.2111
lradius 35.928
lwrist -11.2636
lhand -9.09575 9.98718
lfingers 7.12502
lthumb 16.8543 39.2758
rfemur -4.69937 -1.71741 17.4576
rtibia 43.5449
rfoot 6.09251 26.8091
rtoes 19.2026
lfemur -22.3561 0.254798 -21.334
ltibia 34.6354
lfoot -9.8349 0.467191
ltoes 1.51734
290
root -1.50195 17.1353 45.8173 1.72943 -7.25567 0.117393
lowerback 6.56232 0.0123026 -1.89254
upperback -2.53762 -0.0892118 1.12794
thorax -6.33094 0.0577563 2.25326
lowerneck -20.5561 -3.69603 -4.34031
upperneck 11.6296 -4.39833 3.8232
head 7.0842 -1.95036 1.42741
rclavicle -1.20358e-014 6.16232e-015
rhumerus -43.9155 -17.7232 -69.3549
rradius 32.6676
rwrist -0.378934
rhand -19.6461 -13.4063
rfingers 7.12502
rthumb 6.68146 -43.2809
lclavicle -1.20358e-014 6.16232e-015
lhumerus -43.5566 16.2313 71.277
lradius 35.8053
lwrist -11.2478
lhand -8.8543 10.0388
lfingers 7.12502
lthumb 17.0867 39.3074
rfemur -5.64292 -2.21964 16.6449
rtibia 45.5946
rfoot 8.36174 26.8151
rtoes 18.632
lfemur -21.7918 0.7095 -21.8808
ltibia 34.4121
lfoot -10.0255 0.320286
ltoes 1.45539
291
root -1.49113 17.1365 45.8927 1.53907 -7.41996 0.527677
lowerback 6.66807 -0.00045273 -2.35325
upperback -2.54524 -0.15797 1.00624
thorax -6.39649 0.0410005 2.39449
lowerneck -20.4699 -3.63839 -4.29439
upperneck 11.6248 -4.32637 3.75994
head 7.06294 -1.92086 1.40912
rclavicle -2.56246e-015 7.95139e-016
rhumerus -44.115 -17.7512 -69.1218
rradius 32.6946
rwrist -0.36682
rhand -19.5394 -13.4785
rfingers 7.12502
rthumb 6.78445 -43.3498
lclavicle -2.56246e-015 7.95139e-016
lhumerus -43.572 15.9933 71.376
lradius 35.7144
lwrist -11.2885
lhand -8.57584 10.0134
lfingers 7.12502
lthumb 17.3547 39.2586
rfemur -6.59839 -2.74197 15.8299
rtibia 47.6367
rfoot 10.4012 26.7026
rtoes 18.3555
lfemur -21.2338 1.13808 -22.4372
ltibia 34.1669
lfoot -10.1923 0.15411
ltoes 1.37185
292
root -1.48204 17.1377 45.9654 1.34395 -7.51815 0.933609
lowerback 6.79273 -0.0233404 -2.8104
upperback -2.55222 -0.241754 0.885902
thorax -6.47079 0.0171689 2.53724
lowerneck -20.3734 -3.5917 -4.26198
upperneck 11.613 -4.26753 3.70833
head 7.03893 -1.8973 1.39532
rclavicle 1.50859e-014 1.98785e-016
rhumerus -44.3122 -17.8022 -68.8893
rradius 32.7449
rwrist -0.357779
rhand -19.4664 -13.5395
rfingers 7.12502
rthumb 6.8549 -43.4086
lclavicle 1.50859e-014 1.98785e-016
lhumerus -43.5611 15.7056 71.5054
lradius 35.6496
lwrist -11.3788
lhand -8.27901 9.92284
lfingers 7.12502
lthumb 17.6404 39.1426
rfemur -7.54355 -3.29949 15.041
rtibia 49.6429
rfoot 12.0855 26.4937
rtoes 18.7729
lfemur -20.6813 1.49778 -22.9772
ltibia 33.9129
lfoot -10.342 0.00779216
ltoes 1.26093
